{
  "accessors": [
    {
      "bufferView": 2,
      "componentType": 5126,
      "count": 65532,
      "max": [
        2.6165199279785156,
        -0.2721500098705292,
        3.1136300563812256
      ],
      "min": [
        -2.5728800296783447,
        -2.941960096359253,
        -3.3527700901031494
      ],
      "type": "VEC3"
    },
    {
      "bufferView": 2,
      "byteOffset": 786384,
      "componentType": 5126,
      "count": 65532,
      "max": [
        0.9999497532844543,
        0.9999557137489319,
        0.9999447464942932
      ],
      "min": [
        -0.9999834895133972,
        -0.9999264478683472,
        -0.9999848008155823
      ],
      "type": "VEC3"
    },
    {
      "bufferView": 1,
      "componentType": 5126,
      "count": 65532,
      "max": [
        1.0,
        1.0
      ],
      "min": [
        0.0,
        0.0
      ],
      "type": "VEC2"
    },
    {
      "bufferView": 0,
      "componentType": 5125,
      "count": 361329,
      "type": "SCALAR"
    },
    {
      "bufferView": 2,
      "byteOffset": 1572768,
      "componentType": 5126,
      "count": 65532,
      "max": [
        2.6098899841308594,
        2.9618399143218994,
        3.1874899864196777
      ],
      "min": [
        -2.634399890899658,
        -1.1720499992370605,
        -3.4475998878479004
      ],
      "type": "VEC3"
    },
    {
      "bufferView": 2,
      "byteOffset": 2359152,
      "componentType": 5126,
      "count": 65532,
      "max": [
        0.9999464154243469,
        0.9999204874038696,
        0.9999449849128723
      ],
      "min": [
        -0.9998820424079895,
        -0.9998515248298645,
        -0.9999677538871765
      ],
      "type": "VEC3"
    },
    {
      "bufferView": 1,
      "byteOffset": 524256,
      "componentType": 5126,
      "count": 65532,
      "max": [
        1.0,
        1.0
      ],
      "min": [
        0.0,
        0.0
      ],
      "type": "VEC2"
    },
    {
      "bufferView": 0,
      "byteOffset": 1445316,
      "componentType": 5125,
      "count": 361074,
      "type": "SCALAR"
    },
    {
      "bufferView": 2,
      "byteOffset": 3145536,
      "componentType": 5126,
      "count": 65532,
      "max": [
        0.6626399755477905,
        2.5999701023101807,
        3.3717401027679443
      ],
      "min": [
        -3.006999969482422,
        -2.5332601070404053,
        -3.4146299362182617
      ],
      "type": "VEC3"
    },
    {
      "bufferView": 2,
      "byteOffset": 3931920,
      "componentType": 5126,
      "count": 65532,
      "max": [
        0.9999958872795105,
        0.9999471306800842,
        0.9999534487724304
      ],
      "min": [
        -0.9999927878379822,
        -0.9999241828918457,
        -0.9999252557754517
      ],
      "type": "VEC3"
    },
    {
      "bufferView": 1,
      "byteOffset": 1048512,
      "componentType": 5126,
      "count": 65532,
      "max": [
        1.0,
        1.0
      ],
      "min": [
        0.0,
        0.0
      ],
      "type": "VEC2"
    },
    {
      "bufferView": 0,
      "byteOffset": 2889612,
      "componentType": 5125,
      "count": 361353,
      "type": "SCALAR"
    },
    {
      "bufferView": 2,
      "byteOffset": 4718304,
      "componentType": 5126,
      "count": 65532,
      "max": [
        2.984839916229248,
        2.5508599281311035,
        3.429490089416504
      ],
      "min": [
        -2.929579973220825,
        -2.5202600955963135,
        -3.1844398975372314
      ],
      "type": "VEC3"
    },
    {
      "bufferView": 2,
      "byteOffset": 5504688,
      "componentType": 5126,
      "count": 65532,
      "max": [
        0.999932050704956,
        0.99998539686203,
        0.9997251629829407
      ],
      "min": [
        -0.9999356269836426,
        -0.9999952912330627,
        -0.9999669194221497
      ],
      "type": "VEC3"
    },
    {
      "bufferView": 1,
      "byteOffset": 1572768,
      "componentType": 5126,
      "count": 65532,
      "max": [
        1.0,
        1.0
      ],
      "min": [
        0.0,
        0.0
      ],
      "type": "VEC2"
    },
    {
      "bufferView": 0,
      "byteOffset": 4335024,
      "componentType": 5125,
      "count": 361101,
      "type": "SCALAR"
    },
    {
      "bufferView": 2,
      "byteOffset": 6291072,
      "componentType": 5126,
      "count": 18765,
      "max": [
        2.9923601150512695,
        -1.3105900287628174,
        3.2100400924682617
      ],
      "min": [
        0.6558600068092346,
        -2.5837199687957764,
        -1.059399962425232
      ],
      "type": "VEC3"
    },
    {
      "bufferView": 2,
      "byteOffset": 6516252,
      "componentType": 5126,
      "count": 18765,
      "max": [
        0.9999064803123474,
        0.9997409582138062,
        0.9999268054962158
      ],
      "min": [
        -0.9998506903648376,
        -0.9996417760848999,
        -0.9998764395713806
      ],
      "type": "VEC3"
    },
    {
      "bufferView": 1,
      "byteOffset": 2097024,
      "componentType": 5126,
      "count": 18765,
      "max": [
        1.0,
        1.0
      ],
      "min": [
        0.0,
        0.0
      ],
      "type": "VEC2"
    },
    {
      "bufferView": 0,
      "byteOffset": 5779428,
      "componentType": 5125,
      "count": 103431,
      "type": "SCALAR"
    },
    {
      "bufferView": 2,
      "byteOffset": 6741432,
      "componentType": 5126,
      "count": 8226,
      "max": [
        3.696010112762451,
        3.586549997329712,
        3.6720399856567383
      ],
      "min": [
        -3.70740008354187,
        -3.6222400665283203,
        -3.7244300842285156
      ],
      "type": "VEC3"
    },
    {
      "bufferView": 2,
      "byteOffset": 6840144,
      "componentType": 5126,
      "count": 8226,
      "max": [
        0.9999121427536011,
        0.9998552203178406,
        0.9998765587806702
      ],
      "min": [
        -0.9999062418937683,
        -0.9999789595603943,
        -0.9998641610145569
      ],
      "type": "VEC3"
    },
    {
      "bufferView": 1,
      "byteOffset": 2247144,
      "componentType": 5126,
      "count": 8226,
      "max": [
        0.9941700100898743,
        0.9917700290679932
      ],
      "min": [
        0.0014799999771639705,
        0.34286001324653625
      ],
      "type": "VEC2"
    },
    {
      "bufferView": 0,
      "byteOffset": 6193152,
      "componentType": 5125,
      "count": 46464,
      "type": "SCALAR"
    },
    {
      "bufferView": 2,
      "byteOffset": 6938856,
      "componentType": 5126,
      "count": 212,
      "max": [
        3.4140400886535645,
        3.349090099334717,
        3.3952701091766357
      ],
      "min": [
        -3.4067299365997314,
        -3.3085200786590576,
        -3.429219961166382
      ],
      "type": "VEC3"
    },
    {
      "bufferView": 2,
      "byteOffset": 6941400,
      "componentType": 5126,
      "count": 212,
      "max": [
        0.9698116183280945,
        0.9730204939842224,
        0.9725779294967651
      ],
      "min": [
        -0.970158040523529,
        -0.9740552306175232,
        -0.9688668251037598
      ],
      "type": "VEC3"
    },
    {
      "bufferView": 1,
      "byteOffset": 2312952,
      "componentType": 5126,
      "count": 212,
      "max": [
        1.0,
        1.0
      ],
      "min": [
        0.0,
        0.0
      ],
      "type": "VEC2"
    },
    {
      "bufferView": 0,
      "byteOffset": 6379008,
      "componentType": 5125,
      "count": 900,
      "type": "SCALAR"
    }
  ],
  "asset": {
    "extras": {
      "author": "mrtwins (https://sketchfab.com/mrtwins)",
      "license": "CC-BY-4.0 (http://creativecommons.org/licenses/by/4.0/)",
      "source": "https://sketchfab.com/3d-models/baseball-model-29622b577d8e4e6dbd9fa40454f18118",
      "title": "baseball - model"
    },
    "generator": "Sketchfab-12.65.0",
    "version": "2.0"
  },
  "bufferViews": [
    {
      "buffer": 0,
      "byteLength": 6382608,
      "name": "floatBufferViews",
      "target": 34963
    },
    {
      "buffer": 0,
      "byteLength": 2314648,
      "byteOffset": 6382608,
      "byteStride": 8,
      "name": "floatBufferViews",
      "target": 34962
    },
    {
      "buffer": 0,
      "byteLength": 6943944,
      "byteOffset": 8697256,
      "byteStride": 12,
      "name": "floatBufferViews",
      "target": 34962
    }
  ],
  "buffers": [
    {
      "byteLength": 15641200,
      "uri": "scene.bin"
    }
  ],
  "materials": [
    {
      "doubleSided": true,
      "name": "Root",
      "pbrMetallicRoughness": {
        "metallicFactor": 0.0,
        "roughnessFactor": 0.6
      }
    },
    {
      "doubleSided": true,
      "name": "seam.001",
      "pbrMetallicRoughness": {
        "baseColorFactor": [
          0.5306122303009033,
          0.0,
          0.0,
          1.0
        ],
        "metallicFactor": 0.0,
        "roughnessFactor": 0.6
      }
    },
    {
      "doubleSided": true,
      "name": "leather.001",
      "pbrMetallicRoughness": {
        "baseColorFactor": [
          0.9285714030265808,
          0.9254370331764221,
          0.9168173670768738,
          1.0
        ],
        "metallicFactor": 0.0,
        "roughnessFactor": 0.6
      }
    }
  ],
  "meshes": [
    {
      "name": "Sweep_2_2_0",
      "primitives": [
        {
          "attributes": {
            "NORMAL": 1,
            "POSITION": 0,
            "TEXCOORD_0": 2
          },
          "indices": 3,
          "material": 1,
          "mode": 4
        }
      ]
    },
    {
      "name": "Sweep_2_2_0",
      "primitives": [
        {
          "attributes": {
            "NORMAL": 5,
            "POSITION": 4,
            "TEXCOORD_0": 6
          },
          "indices": 7,
          "material": 1,
          "mode": 4
        }
      ]
    },
    {
      "name": "Sweep_2_2_0",
      "primitives": [
        {
          "attributes": {
            "NORMAL": 9,
            "POSITION": 8,
            "TEXCOORD_0": 10
          },
          "indices": 11,
          "material": 1,
          "mode": 4
        }
      ]
    },
    {
      "name": "Sweep_2_2_0",
      "primitives": [
        {
          "attributes": {
            "NORMAL": 13,
            "POSITION": 12,
            "TEXCOORD_0": 14
          },
          "indices": 15,
          "material": 1,
          "mode": 4
        }
      ]
    },
    {
      "name": "Sweep_2_2_0",
      "primitives": [
        {
          "attributes": {
            "NORMAL": 17,
            "POSITION": 16,
            "TEXCOORD_0": 18
          },
          "indices": 19,
          "material": 1,
          "mode": 4
        }
      ]
    },
    {
      "name": "Boole_1_2_0",
      "primitives": [
        {
          "attributes": {
            "NORMAL": 21,
            "POSITION": 20,
            "TEXCOORD_0": 22
          },
          "indices": 23,
          "material": 2,
          "mode": 4
        }
      ]
    },
    {
      "name": "inner_surface_0",
      "primitives": [
        {
          "attributes": {
            "NORMAL": 25,
            "POSITION": 24,
            "TEXCOORD_0": 26
          },
          "indices": 27,
          "material": 0,
          "mode": 4
        }
      ]
    }
  ],
  "nodes": [
    {
      "children": [
        1
      ],
      "matrix": [
        1.0,
        0.0,
        0.0,
        0.0,
        0.0,
        2.220446049250313e-16,
        -1.0,
        0.0,
        0.0,
        1.0,
        2.220446049250313e-16,
        0.0,
        0.0,
        0.0,
        0.0,
        1.0
      ],
      "name": "Sketchfab_model"
    },
    {
      "children": [
        2,
        4
      ],
      "name": "Root"
    },
    {
      "children": [
        3
      ],
      "matrix": [
        -0.29086000000000006,
        0.9551700000000001,
        -0.05519000000000001,
        0.0,
        -0.7711,
        -0.19988000000000003,
        0.6045200000000001,
        0.0,
        0.5663900000000001,
        0.21839000000000003,
        0.7946700000000001,
        0.0,
        4.076250000000001,
        1.00545,
        5.903860000000001,
        1.0
      ],
      "name": "Lamp"
    },
    {
      "name": "Lamp"
    },
    {
      "children": [
        5,
        13,
        17
      ],
      "matrix": [
        -0.004120000000000001,
        0.008730000000000003,
        0.0026100000000000008,
        0.0,
        0.005340000000000001,
        0.0,
        0.008450000000000001,
        0.0,
        0.007380000000000002,
        0.0048800000000000015,
        -0.004660000000000001,
        0.0,
        -0.019270000000000002,
        -0.038430000000000006,
        -0.001970000000000001,
        1.0
      ],
      "name": "Baseball"
    },
    {
      "children": [
        6
      ],
      "name": "Subdivision_Surface_1"
    },
    {
      "children": [
        7
      ],
      "name": "Sweep_2"
    },
    {
      "children": [
        8,
        9,
        10,
        11,
        12
      ],
      "name": "Sweep_2_2"
    },
    {
      "mesh": 0,
      "name": "Sweep_2_2_0"
    },
    {
      "mesh": 1,
      "name": "Sweep_2_2_0"
    },
    {
      "mesh": 2,
      "name": "Sweep_2_2_0"
    },
    {
      "mesh": 3,
      "name": "Sweep_2_2_0"
    },
    {
      "mesh": 4,
      "name": "Sweep_2_2_0"
    },
    {
      "children": [
        14
      ],
      "matrix": [
        -1.0,
        -0.0,
        -0.0,
        0.0,
        0.0,
        -1.0,
        0.0,
        0.0,
        0.0,
        -0.0,
        1.0,
        0.0,
        0.0,
        -0.0,
        0.0,
        1.0
      ],
      "name": "Subdivision_Surface"
    },
    {
      "children": [
        15
      ],
      "name": "Boole_1"
    },
    {
      "children": [
        16
      ],
      "name": "Boole_1_2"
    },
    {
      "mesh": 5,
      "name": "Boole_1_2_0"
    },
    {
      "children": [
        18
      ],
      "name": "inner_surface"
    },
    {
      "mesh": 6,
      "name": "inner_surface_0"
    }
  ],
  "scene": 0,
  "scenes": [
    {
      "name": "Sketchfab_Scene",
      "nodes": [
        0
      ]
    }
  ]
}
